<?xml version="1.0" encoding="utf-8"?>
<!-- Generator: Adobe Illustrator 19.2.0, SVG Export Plug-In . SVG Version: 6.00 Build 0)  -->
<svg version="1.1" id="Layer_1" xmlns="http://www.w3.org/2000/svg" xmlns:xlink="http://www.w3.org/1999/xlink" x="0px" y="0px"
	 viewBox="0 0 611 120" style="enable-background:new 0 0 611 120;" xml:space="preserve">
<style type="text/css">
	.st0{fill:#C7C6C6;}
	.st1{fill-rule:evenodd;clip-rule:evenodd;fill:#3781C3;}
	.st2{fill:#555454;}
	.st3{font-family:'HelveticaNeue-Medium';}
	.st4{font-size:84px;}
	.st5{font-family:'HelveticaNeue-Thin';}
</style>
<g>
	<g id="Shape_1_copy_80_4_">
		<g>
			<rect x="32.2" y="5.5" class="st0" width="71.5" height="8.2"/>
		</g>
	</g>
	<g id="Shape_1_copy_81_5_">
		<g>
			<rect x="30.5" y="16.4" class="st0" width="72.6" height="8.2"/>
		</g>
	</g>
	<g id="Shape_1_copy_82_5_">
		<g>
			<rect x="31.3" y="27.4" class="st0" width="67.2" height="8.2"/>
		</g>
	</g>
	<g id="Shape_1_copy_83_5_">
		<g>
			<rect x="34.2" y="38.3" class="st0" width="60.3" height="8.2"/>
		</g>
	</g>
	<g id="Shape_1_copy_84_5_">
		<g>
			<rect x="39.3" y="49.2" class="st0" width="50.9" height="8.2"/>
		</g>
	</g>
	<g id="Shape_1_copy_85_5_">
		<g>
			<rect x="31.5" y="60.2" class="st0" width="57.5" height="8.2"/>
		</g>
	</g>
	<g id="Shape_1_copy_86_5_">
		<g>
			<rect x="23.1" y="71.1" class="st0" width="69.2" height="8.2"/>
		</g>
	</g>
	<g id="Shape_1_copy_87_5_">
		<g>
			<rect x="15.7" y="82" class="st0" width="79.4" height="8.2"/>
		</g>
	</g>
	<g id="Shape_1_copy_88_5_">
		<g>
			<rect x="10.5" y="93" class="st0" width="85.9" height="8.2"/>
		</g>
	</g>
	<g id="Shape_1_copy_89_5_">
		<g>
			<rect x="6.7" y="103.9" class="st0" width="89.3" height="8.2"/>
		</g>
	</g>
	<g id="Shape_1_copy_80_3_">
		<rect x="6.7" y="103.9" class="st1" width="70.6" height="8.2"/>
	</g>
	<g id="Shape_1_copy_81_3_">
		<rect x="10.5" y="93" class="st1" width="67.7" height="8.2"/>
	</g>
	<g id="Shape_1_copy_82_3_">
		<rect x="15.7" y="82" class="st1" width="62.9" height="8.2"/>
	</g>
	<g id="Shape_1_copy_83_3_">
		<rect x="23.1" y="71.1" class="st1" width="58.6" height="8.2"/>
	</g>
	<g id="Shape_1_copy_84_3_">
		<rect x="31.5" y="60.2" class="st1" width="52.6" height="8.2"/>
	</g>
	<g id="Shape_1_copy_85_3_">
		<rect x="44.4" y="49.2" class="st1" width="45.7" height="8.2"/>
	</g>
	<g id="Shape_1_copy_86_3_">
		<rect x="55.9" y="38.3" class="st1" width="38.6" height="8.2"/>
	</g>
	<g id="Shape_1_copy_87_3_">
		<rect x="67.9" y="27.4" class="st1" width="30.7" height="8.2"/>
	</g>
	<g id="Shape_1_copy_88_3_">
		<rect x="78.5" y="16.4" class="st1" width="24.6" height="8.2"/>
	</g>
	<g id="Shape_1_copy_89_3_">
		<rect x="83.5" y="5.5" class="st1" width="20.2" height="8.2"/>
	</g>
</g>
<g>
	<text transform="matrix(1 0 0 1 135.7856 93.4072)"><tspan x="0" y="0" class="st2 st3 st4">NGI</tspan><tspan x="147.8" y="0" class="st2 st5 st4">-RNAseq</tspan></text>
</g>
</svg>
